<?xml version="1.0" encoding="UTF-8" standalone="no"?>
<!-- Created with Inkscape (http://www.inkscape.org/) -->

<svg
   xmlns:dc="http://purl.org/dc/elements/1.1/"
   xmlns:cc="http://creativecommons.org/ns#"
   xmlns:rdf="http://www.w3.org/1999/02/22-rdf-syntax-ns#"
   xmlns:svg="http://www.w3.org/2000/svg"
   xmlns="http://www.w3.org/2000/svg"
   xmlns:sodipodi="http://sodipodi.sourceforge.net/DTD/sodipodi-0.dtd"
   xmlns:inkscape="http://www.inkscape.org/namespaces/inkscape"
   width="323.4985mm"
   height="155.18465mm"
   viewBox="0 0 323.4985 155.18465"
   version="1.1"
   id="svg8"
   inkscape:version="0.92.2 (5c3e80d, 2017-08-06)"
   sodipodi:docname="congrats.svg">
  <sodipodi:namedview
     id="base"
     pagecolor="#ffffff"
     bordercolor="#666666"
     borderopacity="1.0"
     inkscape:pageopacity="0.0"
     inkscape:pageshadow="2"
     inkscape:zoom="1"
     inkscape:cx="611.33573"
     inkscape:cy="293.26232"
     inkscape:document-units="mm"
     inkscape:current-layer="layer1"
     showgrid="false"
     inkscape:window-width="1920"
     inkscape:window-height="1017"
     inkscape:window-x="-8"
     inkscape:window-y="-8"
     inkscape:window-maximized="1"
     fit-margin-top="10"
     fit-margin-left="10"
     fit-margin-right="10"
     fit-margin-bottom="10" />
  <defs
     id="defs2" />
  <metadata
     id="metadata5">
    <rdf:RDF>
      <cc:Work
         rdf:about="">
        <dc:format>image/svg+xml</dc:format>
        <dc:type
           rdf:resource="http://purl.org/dc/dcmitype/StillImage" />
        <dc:title></dc:title>
      </cc:Work>
    </rdf:RDF>
  </metadata>
  <g
     id="layer1"
     inkscape:groupmode="layer"
     inkscape:label="Layer 1"
     transform="translate(431.4901,-64.069627)">
    <path
       style="fill:#000000;stroke-width:0.35277778"
       d="m -328.72589,209.2357 c -9.5116,-0.27843 -18.21037,-5.98465 -22.37044,-14.51606 -4.93622,-8.9042 -2.51751,-20.43401 4.41137,-27.6095 4.45724,-5.50949 12.14846,-5.72789 18.58624,-6.32426 8.17147,-4.99667 17.9343,-2.77568 26.71311,-0.98799 5.46039,0.52905 10.76715,2.73308 16.29724,2.17141 1.24642,-2.74118 3.68922,-7.75621 2.96906,-9.59858 -4.74125,0.7889 -10.17533,0.20715 -12.96288,-4.28335 -1.75742,-3.24744 -3.03094,-8.38507 -5.83875,-2.57683 -3.10165,5.63097 -11.85964,9.79362 -17.17061,4.59889 -3.37419,-3.83554 -3.29066,-9.05907 -0.81666,-13.34664 2.43328,-6.65269 8.6713,-11.70462 9.37899,-18.86404 -0.78348,-3.74782 -6.70658,-1.0814 -9.20051,0.24874 -3.22051,3.19622 -7.42663,5.79784 -8.49328,10.64222 -4.89703,7.76512 -7.78535,16.60202 -12.63236,24.42442 -3.20824,3.68259 -7.12724,-1.57379 -4.74319,-4.7966 3.72744,-8.67302 8.71069,-16.84641 11.62532,-25.88018 -1.54501,-0.85658 -6.72582,2.9408 -6.47279,6.03418 -1.06259,7.34492 -2.33519,15.16216 -7.97708,20.50533 -2.81672,5.03198 -8.27581,7.96228 -13.71142,9.19165 -5.73582,-0.51781 -11.35564,-3.7234 -12.52961,-9.76279 -1.32543,-2.97567 -3.99855,4.35341 -6.5673,4.7625 -5.48957,5.09831 -12.91498,8.78154 -20.64095,7.52615 -3.77208,0.077 -7.52991,0.27529 -10.58392,-2.24923 -4.3159,-1.60728 -6.66947,-5.42375 -8.70487,-9.33386 -2.0502,-5.54796 -1.21734,-12.05216 -0.82877,-17.93133 1.74432,-8.35442 4.88784,-16.36971 9.71406,-23.38687 5.04026,-7.46926 10.88869,-14.515652 18.19265,-19.888753 6.07288,-3.723742 12.11585,-8.230315 19.60276,-7.939815 5.96698,-0.831548 13.10048,0.538486 15.5902,6.776895 1.12276,4.626815 0.0836,9.706069 -4.07905,12.41327 -2.42618,2.711923 -8.11787,4.014143 -10.50103,0.776193 2.63648,-1.806656 7.07207,-0.955555 8.20004,-5.31083 2.31123,-3.579511 -0.5688,-10.082939 -5.24472,-8.829009 -7.32223,-0.132995 -12.6247,5.867956 -18.12477,9.874416 -2.72333,3.10615 -5.73238,5.996173 -8.46624,8.992473 -6.3036,7.99443 -10.64236,17.50513 -12.87309,27.4441 -0.26999,6.48645 -1.6898,14.45315 4.09303,18.95962 6.49174,4.5087 15.77912,2.66487 21.1947,-2.74258 5.09604,-4.07935 10.14021,-8.69982 12.15678,-15.16396 2.89423,-5.01804 6.74604,-10.11604 11.95273,-12.86101 5.01505,-2.28067 10.44604,-5.76416 16.04753,-2.979 1.57349,3.52893 3.85745,3.18835 6.42823,0.55635 3.50637,-2.71956 8.27475,-2.38558 11.29863,0.8419 5.17818,-3.79511 12.35846,-8.87736 18.95374,-5.40934 4.89591,3.02798 5.87721,9.35965 3.43416,14.31815 -2.40185,5.12681 -5.01929,10.08833 -7.65759,15.12925 -3.0819,3.08444 -0.60129,8.44874 3.07274,4.20545 5.37374,-5.06541 7.61649,-12.1704 12.43876,-17.67784 4.05053,-6.0724 9.54532,-12.47183 16.88062,-14.16414 4.03905,0.25851 9.24403,-2.33463 11.69526,2.17719 1.65259,-1.44404 7.40388,-3.97585 6.10758,1.79427 -2.65061,7.72419 -6.70045,14.92004 -9.22705,22.69415 2.46197,-0.86186 5.63131,-5.09355 8.29232,-7.31986 3.19628,-3.3597 6.9424,-6.65683 8.5569,-11.10245 -3.41088,-2.15815 -4.99369,-7.59986 -1.94475,-10.58333 3.94971,-2.37147 7.00352,2.24246 8.50855,5.0712 3.91124,-3.12581 7.31582,-7.47231 11.88793,-9.41685 3.20699,-0.0237 8.1866,-1.57508 9.26988,2.48564 0.51241,6.38359 -0.72324,12.61879 -4.11482,18.08778 -1.80472,4.58617 -6.92512,7.99544 -7.04693,13.02899 2.97209,2.56066 8.67285,-0.62046 10.63606,-3.88521 5.83949,-6.09451 4.911,-15.87441 11.43356,-21.50077 4.49281,-5.4826 12.75568,-9.28272 19.48318,-5.66511 1.11845,-4.66244 6.13202,-4.71418 3.90552,0.68017 -2.07423,10.12109 -6.60618,19.92583 -5.45698,30.47406 2.95319,4.01973 5.70875,-2.62955 7.82403,-4.62745 3.00376,-7.87583 4.60691,-16.3311 8.14603,-24.04933 2.36751,-6.19691 4.31803,-12.57093 6.87229,-18.715113 -7.6718,0.321713 -15.16954,2.741822 -22.82621,3.645835 -6.1806,0.574524 -13.17684,1.448771 -18.87189,-1.488455 -3.08133,-2.018553 -4.63601,-6.590027 -2.50578,-9.73511 6.76928,-2.647163 0.49878,3.210648 4.32682,4.678545 9.38801,2.826443 19.03995,-1.783999 28.37567,-3.195651 4.84875,-1.289956 10.35453,-1.537454 14.85734,-3.130658 2.39875,-3.7781 3.25113,-8.957943 7.09287,-11.547726 2.11082,2.464968 -0.7393,7.04219 -1.17529,10.162159 1.54612,1.633847 7.63607,0.315809 10.921,0.957428 8.71061,-1.039094 16.60845,10.656491 10.27021,17.693856 -2.46046,4.15429 -10.00133,2.72865 -8.76889,-2.7079 1.99487,-2.26154 4.22855,5.04518 6.06691,-1.319293 1.62061,-4.077655 -3.15642,-7.932569 -7.05131,-7.090935 -4.58207,0.02429 -9.13934,0.754343 -13.64948,1.521302 -2.59823,10.094406 -4.73026,20.292426 -8.26171,30.117046 -1.99382,7.44967 -5.63629,14.59942 -5.57603,22.4566 4.91325,2.05276 9.87808,-0.60462 12.92934,-4.56833 8.54817,-8.60417 16.61717,-17.72817 25.2602,-26.2629 2.76964,-4.7477 3.13076,-13.27757 9.95787,-13.79516 4.30564,0.84991 2.06087,6.7165 -0.62339,8.56386 -3.50531,2.65453 -4.72105,5.83966 -3.01398,9.98468 1.11461,5.8464 2.71748,11.58017 3.27617,17.51788 5.10995,-1.72152 10.10452,-4.14423 14.55208,-7.13864 1.71688,2.9752 -4.34053,5.25477 -6.52639,7.0967 -3.32712,2.18184 -9.04282,1.89995 -9.83298,6.49231 -2.99375,7.13788 -10.61918,12.82833 -18.62875,11.50042 -7.37135,0.92924 -13.93118,-10.32671 -7.34585,-15.23768 5.29409,-2.71862 12.15478,-0.52364 17.46314,-2.44308 2.94881,-6.19213 1.48609,-13.1523 1.89051,-19.75553 -8.6014,8.68533 -17.52408,17.18907 -24.11552,27.60144 -4.91725,6.00758 -15.17359,8.72204 -20.81388,2.29347 -2.21763,-1.77929 -5.89269,3.70009 -9.53138,1.89502 -3.42605,-0.49525 -5.26451,-5.92572 -7.91396,-1.49793 -3.393,2.88528 -9.5475,2.57751 -12.99157,-0.097 -4.1484,-2.26929 -4.84158,-6.97873 -5.85963,-11.14541 -3.45846,4.10971 -6.2842,9.75543 -11.34922,11.89034 -4.11654,0.72396 -8.02528,-1.3578 -9.59756,-5.18757 -2.62761,8.19881 -7.99029,15.74249 -16.09531,19.14058 -5.99924,2.29884 -12.48161,2.74088 -18.76628,3.8883 -3.58172,8.52228 -7.13131,17.17225 -13.24995,24.27757 -6.28084,6.23754 -12.85364,13.31045 -21.84031,15.49747 -4.84017,1.86998 -10.13659,3.04775 -15.32695,2.86495 m 4.7625,-7.10772 c 12.61394,-1.41195 24.15603,-9.13702 29.93332,-20.49022 2.65466,-4.88331 6.13671,-9.65104 7.08932,-15.18595 -7.5307,-2.19847 -15.92001,-1.98515 -23.5079,-4.56558 -4.22762,0.25297 -8.83047,-1.60556 -12.71959,0.55221 -0.0185,3.44846 4.02968,5.95464 3.22452,9.84178 0.83049,5.56862 -4.00135,13.03189 -10.21416,10.0922 -5.68861,-3.41541 -5.57488,-11.43276 -2.92292,-16.81967 -6.04838,1.45066 -11.4948,6.78698 -12.81038,12.8186 -1.5485,7.89008 1.77187,16.15167 8.7236,20.3626 3.6775,2.53051 8.70804,4.32827 13.20414,3.39403 m -1.69794,-26.54653 c 1.58704,-2.43223 1.90898,-9.41083 -1.60358,-8.99914 -2.74441,2.36375 -5.17154,8.49729 -0.21248,9.78855 0.60535,-0.26314 1.21078,-0.52623 1.81606,-0.78941 z m 58.03823,-13.95404 c 11.23973,-1.87646 20.99069,-10.67285 22.85833,-22.09511 2.59934,-8.90717 8.15569,-16.46645 11.64166,-25.05025 0.36057,-2.78334 -5.47598,3.78186 -7.01133,5.39484 -2.45225,3.0862 -5.96817,4.78685 -9.87283,5.06087 -4.55471,6.1261 -10.24625,11.44613 -15.66593,16.85644 -6.59916,4.37353 -9.25273,12.32016 -10.83519,19.67971 0.65158,2.12849 6.66149,-0.0264 8.88529,0.1535 z m -89.72064,-10.61827 c 5.75029,-3.15764 10.02568,-8.85205 11.90294,-14.96733 2.29131,-4.99285 -0.38667,-6.01544 -4.82977,-6.58606 -2.45383,-4.28724 -4.81305,-4.55964 -8.04644,-0.39193 -4.13054,4.03937 -7.72859,8.88644 -8.49374,14.71591 -2.45384,4.63317 3.2582,10.56404 7.9432,7.77954 0.50794,-0.18338 1.01587,-0.36675 1.52381,-0.55013 z m 207.05702,-3.53896 c 1.63255,-1.62019 8.43915,-6.68493 3.05688,-5.89576 -3.399,0.33017 -9.07477,-0.98948 -10.08371,3.20386 0.87063,3.45209 4.22835,3.2668 7.02683,2.6919 z m -131.92544,-1.34568 c 5.01577,-2.69269 4.7744,-9.37196 7.83569,-13.69473 1.22034,-4.30069 5.1988,-7.93541 5.05631,-12.45133 -1.74817,-5.4728 -7.99775,-1.12322 -10.89098,0.99487 -4.31836,3.72425 -6.58926,9.48327 -8.65086,14.65276 -1.53698,3.68138 -1.74603,8.44653 2.5053,10.41024 1.38158,0.75783 2.7289,0.81 4.14454,0.0882 z m 76.13596,-3.56357 c 5.497,-4.65032 5.03619,-12.53736 7.32413,-18.8679 0.87554,-3.51068 4.29098,-10.06252 -1.19389,-11.17061 -3.80619,1.03819 -6.75985,4.71671 -8.96533,7.84056 -3.52324,6.01204 -6.14317,13.14588 -4.45621,20.10265 1.75782,2.72861 4.3634,4.71903 7.2913,2.0953 z m -139.22995,-17.69176 c -0.50755,-6.04338 -8.02441,1.85536 -0.72827,0.17259 l 0.64773,-0.1535 z m 94.12347,-6.7905 c -2.94723,-5.99988 -1.03302,5.00086 0,0 z m 117.79817,-12.53989 c 1.3229,-5.32058 -6.74933,6.41771 -2.3323,2.75031 0.77743,-0.91677 1.55487,-1.83354 2.3323,-2.75031 z"
       id="path826"
       inkscape:connector-curvature="0" />
  </g>
</svg>
